Coordinates
version=1
nRows=13
nColumns=63
inDegrees=yes

Units are S.I. units (second, meters, Newtons, ...)
If the header above contains a line with 'inDegrees', this indicates whether rotational values are in degrees (yes) or radians (no).

endheader
time	pelvis_tilt	pelvis_list	pelvis_rotation	pelvis_tx	pelvis_ty	pelvis_tz	hip_flexion_r	hip_adduction_r	hip_rotation_r	knee_angle_r	knee_angle_r_beta	ankle_angle_r	subtalar_angle_r	mtp_angle_r	hip_flexion_l	hip_adduction_l	hip_rotation_l	knee_angle_l	knee_angle_l_beta	ankle_angle_l	subtalar_angle_l	mtp_angle_l	L5_S1_Flex_Ext	L5_S1_Lat_Bending	L5_S1_axial_rotation	L4_L5_Flex_Ext	L4_L5_Lat_Bending	L4_L5_axial_rotation	L3_L4_Flex_Ext	L3_L4_Lat_Bending	L3_L4_axial_rotation	L2_L3_Flex_Ext	L2_L3_Lat_Bending	L2_L3_axial_rotation	L1_L2_Flex_Ext	L1_L2_Lat_Bending	L1_L2_axial_rotation	L1_T12_Flex_Ext	L1_T12_Lat_Bending	L1_T12_axial_rotation	Abs_r3	Abs_r2	Abs_r1	Abs_t1	Abs_t2	neck_flexion	neck_bending	neck_rotation	arm_flex_r	arm_add_r	arm_rot_r	elbow_flex_r	pro_sup_r	wrist_flex_r	wrist_dev_r	arm_flex_l	arm_add_l	arm_rot_l	elbow_flex_l	pro_sup_l	wrist_flex_l	wrist_dev_l
5.338983	-0.597414	-2.048966	95.941265	0.280502	0.682304	0.952892	1.934667	-0.811906	-2.903753	4.832687	0.084346	20.201595	4.541890	0.000000	2.577801	-1.227454	-6.445880	5.374912	0.093810	22.771856	8.404544	0.000000	0.041113	0.022266	0.075475	0.076350	0.029614	0.080192	0.067544	0.054137	0.080192	0.046988	0.054137	0.066040	0.038177	0.045405	0.061323	0.023492	0.034490	0.056606	0.293664	0.251877	0.419768	0.000000	0.000000	20.319849	0.754631	6.246415	24.073259	-3.066374	100.132790	36.967541	87.781190	-18.577489	-10.042611	18.686441	-13.111473	77.387650	48.914762	59.569045	-6.245053	4.367405
5.355932	-0.550081	-1.989674	95.944688	0.280522	0.682427	0.952968	1.889755	-0.754567	-2.887369	4.808496	0.083924	20.277281	4.542057	0.000000	2.548611	-1.292130	-6.668156	5.410234	0.094426	22.814055	8.690858	0.000000	0.037888	0.029254	0.021289	0.070362	0.038907	0.022619	0.062247	0.071128	0.022619	0.043302	0.071128	0.018627	0.035183	0.059654	0.017297	0.021649	0.045314	0.015966	0.270632	0.330924	0.118401	0.000000	0.000000	20.199861	0.660968	6.271886	24.596111	-2.611708	102.577752	36.558822	87.921576	-20.816700	-10.346041	18.600386	-13.105654	77.304392	48.832251	61.623805	-5.884467	4.683378
5.372881	-0.503819	-1.926751	95.952563	0.280525	0.682521	0.953072	1.848289	-0.704366	-2.993165	4.825157	0.084215	20.345372	4.690855	0.000000	2.523171	-1.354910	-6.884190	5.469532	0.095461	22.853981	8.934616	0.000000	0.034789	0.036404	-0.028234	0.064607	0.048417	-0.029998	0.057155	0.088512	-0.029998	0.039760	0.088512	-0.024705	0.032305	0.074234	-0.022940	0.019878	0.056389	-0.021175	0.248495	0.411806	-0.157028	0.000000	0.000000	20.072956	0.472440	6.165373	25.092487	-2.181759	104.810440	36.153150	88.053444	-22.804822	-10.610793	18.552349	-13.086521	77.338807	48.721989	63.296121	-5.370470	4.951491
5.389831	-0.466473	-1.867916	95.955931	0.280515	0.682573	0.953164	1.811430	-0.666543	-3.124399	4.872287	0.085037	20.388432	4.872464	0.000000	2.483701	-1.399768	-7.016409	5.506488	0.096106	22.858811	9.045302	0.000000	0.033299	0.043263	-0.075428	0.061839	0.057540	-0.080142	0.054707	0.105189	-0.080142	0.038057	0.105189	-0.065999	0.030921	0.088222	-0.061285	0.019027	0.067014	-0.056571	0.237850	0.489398	-0.419508	0.000000	0.000000	19.923229	0.236221	6.025110	25.580075	-1.799051	106.882916	35.824748	88.175162	-24.625671	-10.786776	18.456831	-13.073767	77.325597	48.628338	64.525612	-4.810619	5.237670
5.406780	-0.441438	-1.819114	95.958025	0.280517	0.682578	0.953255	1.785106	-0.642550	-3.305256	4.944202	0.086293	20.413170	5.102081	0.000000	2.453564	-1.432061	-7.191249	5.555545	0.096963	22.868922	9.198802	0.000000	0.033373	0.048667	-0.114226	0.061976	0.064727	-0.121365	0.054828	0.118328	-0.121365	0.038142	0.118328	-0.099948	0.030990	0.099241	-0.092808	0.019069	0.075385	-0.085669	0.238378	0.550526	-0.635289	0.000000	0.000000	19.778025	-0.031441	5.829243	26.022546	-1.483774	108.689573	35.563649	88.285982	-26.280893	-10.968683	18.375313	-13.046641	77.399900	48.518815	65.332999	-4.171451	5.506454
5.423729	-0.429983	-1.785598	95.951450	0.280537	0.682535	0.953346	1.775519	-0.636822	-3.554648	5.034309	0.087865	20.430388	5.419647	0.000000	2.439765	-1.456565	-7.520793	5.621860	0.098120	22.907444	9.553762	0.000000	0.035015	0.052164	-0.137462	0.065027	0.069378	-0.146053	0.057526	0.126830	-0.146053	0.040019	0.126830	-0.120279	0.032515	0.106372	-0.111688	0.020008	0.080801	-0.103096	0.250110	0.590084	-0.764522	0.000000	0.000000	19.659185	-0.324855	5.549919	26.355936	-1.273454	109.993654	35.402841	88.387332	-27.561631	-11.122502	18.349835	-12.990758	77.661465	48.380873	65.697609	-3.449244	5.715378
5.440678	-0.425841	-1.765061	95.949718	0.280546	0.682449	0.953418	1.775788	-0.642330	-3.856524	5.130483	0.089544	20.442573	5.788627	0.000000	2.424279	-1.457657	-7.611515	5.664957	0.098872	22.893243	9.595862	0.000000	0.038521	0.054716	-0.150979	0.071537	0.072772	-0.160415	0.063286	0.133035	-0.160415	0.044026	0.133035	-0.132107	0.035771	0.111576	-0.122671	0.022011	0.084754	-0.113234	0.275151	0.618953	-0.839701	0.000000	0.000000	19.570752	-0.628324	5.222129	26.633808	-1.152443	111.009406	35.327195	88.467696	-28.601554	-11.297523	18.365053	-12.906588	78.075354	48.213303	65.672564	-2.638313	5.898777
5.457627	-0.428132	-1.755716	95.937440	0.280574	0.682333	0.953483	1.782798	-0.652384	-4.110062	5.218230	0.091075	20.426106	6.092961	0.000000	2.415510	-1.452007	-7.714937	5.707730	0.099619	22.887125	9.662238	0.000000	0.043128	0.056125	-0.151089	0.080093	0.074646	-0.160532	0.070855	0.136462	-0.160532	0.049291	0.136462	-0.132203	0.040049	0.114450	-0.122760	0.024643	0.086937	-0.113317	0.308060	0.634894	-0.840313	0.000000	0.000000	19.532898	-0.927224	4.843048	26.805216	-1.134007	111.563346	35.327989	88.502922	-29.272904	-11.531958	18.427339	-12.796368	78.611145	48.014225	65.319167	-1.657946	6.072316
5.474576	-0.427102	-1.753774	95.932432	0.280577	0.682201	0.953545	1.795739	-0.663261	-4.415564	5.302537	0.092547	20.397983	6.452192	0.000000	2.414087	-1.446772	-7.770037	5.749717	0.100351	22.882709	9.696755	0.000000	0.048982	0.057831	-0.142141	0.090964	0.076915	-0.151025	0.080472	0.140611	-0.151025	0.055981	0.140611	-0.124373	0.045485	0.117929	-0.115490	0.027988	0.089580	-0.106606	0.349872	0.654197	-0.790546	0.000000	0.000000	19.538537	-1.210966	4.432471	26.822266	-1.252340	111.444371	35.467830	88.503676	-29.371047	-11.637718	18.541221	-12.660267	79.290105	47.799635	64.534607	-0.602909	6.214787
5.491525	-0.423576	-1.751788	95.935605	0.280555	0.682060	0.953602	1.798880	-0.668483	-4.654824	5.364085	0.093621	20.326732	6.704878	0.000000	2.403760	-1.439599	-7.725725	5.769828	0.100702	22.865050	9.640238	0.000000	0.055257	0.059853	-0.129534	0.102617	0.079604	-0.137630	0.090781	0.145526	-0.137630	0.063153	0.145526	-0.113342	0.051311	0.122051	-0.105246	0.031574	0.092712	-0.097150	0.394693	0.677064	-0.720428	0.000000	0.000000	19.590828	-1.451412	4.034993	26.713877	-1.480361	110.758203	35.704213	88.425846	-28.922284	-11.724241	18.658778	-12.516932	79.936539	47.566014	63.685583	0.607365	6.332261
5.508475	-0.409519	-1.740572	95.922750	0.280540	0.681929	0.953688	1.802615	-0.662693	-4.875986	5.432913	0.094822	20.243152	6.959135	0.000000	2.387596	-1.441512	-7.586836	5.795033	0.101142	22.842309	9.456689	0.000000	0.060379	0.063013	-0.108316	0.112130	0.083807	-0.115086	0.099197	0.153209	-0.115086	0.069007	0.153209	-0.094776	0.056068	0.128495	-0.088007	0.034501	0.097606	-0.081237	0.431282	0.712810	-0.602420	0.000000	0.000000	19.678349	-1.656867	3.632027	26.437277	-1.829886	109.319642	36.057859	88.348173	-27.804820	-11.639118	18.797147	-12.362069	80.587575	47.325536	62.438381	1.861770	6.489195
5.525424	-0.389561	-1.727266	95.923409	0.280501	0.681799	0.953768	1.798395	-0.645176	-4.999339	5.485376	0.095738	20.126271	7.067141	0.000000	2.355778	-1.445267	-7.325362	5.787917	0.101018	22.799785	9.165746	0.000000	0.066510	0.066815	-0.090689	0.123515	0.088864	-0.096357	0.109269	0.162454	-0.096357	0.076014	0.162454	-0.079353	0.061761	0.136249	-0.073685	0.038004	0.103496	-0.068017	0.475073	0.755824	-0.504383	0.000000	0.000000	19.770292	-1.787790	3.305485	26.079320	-2.228623	107.556980	36.435598	88.214083	-26.378470	-11.628229	18.907910	-12.223081	81.141837	47.120555	61.159190	3.006413	6.698204
5.542373	-0.358346	-1.708990	95.905324	0.280491	0.681674	0.953868	1.796785	-0.615822	-5.126688	5.539297	0.096679	20.018063	7.215020	0.000000	2.321829	-1.474476	-7.238539	5.787043	0.101003	22.802314	9.123317	0.000000	0.072117	0.071503	-0.069392	0.133929	0.095099	-0.073729	0.118481	0.173852	-0.073729	0.082423	0.173852	-0.060718	0.066968	0.145808	-0.056381	0.041208	0.110758	-0.052044	0.515125	0.808852	-0.385936	0.000000	0.000000	19.869697	-1.845944	3.045166	25.602674	-2.694899	105.296830	36.867463	88.083876	-24.487213	-11.574460	19.006493	-12.095482	81.643656	46.945806	59.754629	3.950204	6.893508
